HIERARCHY
ROOT Hips
{
	OFFSET 0.00000 0.00000 0.00000
	CHANNELS 6 Xposition Yposition Zposition Zrotation Yrotation Xrotation 
	JOINT LHipJoint
	{
		OFFSET 0 0 0
		CHANNELS 3 Zrotation Yrotation Xrotation
		JOINT LeftUpLeg
		{
			OFFSET 1.66553 -1.82942 0.76350
			CHANNELS 3 Zrotation Yrotation Xrotation
			JOINT LeftLeg
			{
				OFFSET 2.41740 -6.64177 0.00000
				CHANNELS 3 Zrotation Yrotation Xrotation
				JOINT LeftFoot
				{
					OFFSET 2.71614 -7.46254 0.00000
					CHANNELS 3 Zrotation Yrotation Xrotation
					JOINT LeftToeBase
					{
						OFFSET 0.08005 -0.21993 1.82495
						CHANNELS 3 Zrotation Yrotation Xrotation
						End Site
						{
							OFFSET 0.00000 -0.00000 0.93441
						}
					}
				}
			}
		}
	}
	JOINT RHipJoint
	{
		OFFSET 0 0 0
		CHANNELS 3 Zrotation Yrotation Xrotation
		JOINT RightUpLeg
		{
			OFFSET -1.63725 -1.82942 0.76350
			CHANNELS 3 Zrotation Yrotation Xrotation
			JOINT RightLeg
			{
				OFFSET -2.40538 -6.60872 0.00000
				CHANNELS 3 Zrotation Yrotation Xrotation
				JOINT RightFoot
				{
					OFFSET -2.73312 -7.50919 0.00000
					CHANNELS 3 Zrotation Yrotation Xrotation
					JOINT RightToeBase
					{
						OFFSET -0.15567 -0.42769 1.93504
						CHANNELS 3 Zrotation Yrotation Xrotation
						End Site
						{
							OFFSET -0.00000 -0.00000 1.00100
						}
					}
				}
			}
		}
	}
	JOINT LowerBack
	{
		OFFSET 0 0 0
		CHANNELS 3 Zrotation Yrotation Xrotation
		JOINT Spine
		{
			OFFSET 0.00326 2.30118 -0.13017
			CHANNELS 3 Zrotation Yrotation Xrotation
			JOINT Spine1
			{
				OFFSET 0.02887 2.30677 0.00834
				CHANNELS 3 Zrotation Yrotation Xrotation
				JOINT Neck
				{
					OFFSET 0 0 0
					CHANNELS 3 Zrotation Yrotation Xrotation
					JOINT Neck1
					{
						OFFSET 0.12946 1.68326 0.00713
						CHANNELS 3 Zrotation Yrotation Xrotation
						JOINT Head
						{
							OFFSET -0.24364 1.67243 -0.16079
							CHANNELS 3 Zrotation Yrotation Xrotation
							End Site
							{
								OFFSET -0.09229 1.70819 -0.06383
							}
						}
					}
				}
				JOINT LeftShoulder
				{
					OFFSET 0 0 0
					CHANNELS 3 Zrotation Yrotation Xrotation
					JOINT LeftArm
					{
						OFFSET 3.28104 0.69567 -0.00556
						CHANNELS 3 Zrotation Yrotation Xrotation
						JOINT LeftForeArm
						{
							OFFSET 5.70706 -0.00000 -0.00000
							CHANNELS 3 Zrotation Yrotation Xrotation
							JOINT LeftHand
							{
								OFFSET 3.33243 -0.00000 0.00000
								CHANNELS 3 Zrotation Yrotation Xrotation
								JOINT LeftFingerBase
								{
									OFFSET 0 0 0
									CHANNELS 3 Zrotation Yrotation Xrotation
									JOINT LeftHandIndex1
									{
										OFFSET 0.79269 -0.00000 0.00000
										CHANNELS 3 Zrotation Yrotation Xrotation
										End Site
										{
											OFFSET 0.63909 -0.00000 0.00000
										}
									}
								}
								JOINT LThumb
								{
									OFFSET 0 0 0
									CHANNELS 3 Zrotation Yrotation Xrotation
									End Site
									{
										OFFSET 0.64884 -0.00000 0.64884
									}
								}
							}
						}
					}
				}
				JOINT RightShoulder
				{
					OFFSET 0 0 0
					CHANNELS 3 Zrotation Yrotation Xrotation
					JOINT RightArm
					{
						OFFSET -3.40955 0.64424 0.14010
						CHANNELS 3 Zrotation Yrotation Xrotation
						JOINT RightForeArm
						{
							OFFSET -5.88176 -0.00000 -0.00000
							CHANNELS 3 Zrotation Yrotation Xrotation
							JOINT RightHand
							{
								OFFSET -3.28156 -0.00000 0.00000
								CHANNELS 3 Zrotation Yrotation Xrotation
								JOINT RightFingerBase
								{
									OFFSET 0 0 0
									CHANNELS 3 Zrotation Yrotation Xrotation
									JOINT RightHandIndex1
									{
										OFFSET -0.86313 -0.00000 0.00000
										CHANNELS 3 Zrotation Yrotation Xrotation
										End Site
										{
											OFFSET -0.69587 -0.00000 0.00000
										}
									}
								}
								JOINT RThumb
								{
									OFFSET 0 0 0
									CHANNELS 3 Zrotation Yrotation Xrotation
									End Site
									{
										OFFSET -0.70650 -0.00000 0.70650
									}
								}
							}
						}
					}
				}
			}
		}
	}
}
MOTION
Frames: 15
Frame Time: .0083333
12.1808 16.4556 -3.3989 10.9356 28.5989 -3.8001 0.0000 0.0000 0.0000 -4.3089 -19.0255 -7.9965 2.3780 9.6127 27.7313 -0.6286 -14.5890 10.2421 0.4309 -4.2127 -11.6759 0.0000 0.0000 0.0000 7.9049 5.3981 -5.2432 -8.4177 -16.4180 54.0535 -4.0311 -5.7465 -40.2026 -0.0010 0.2046 -0.5620 -0.4667 -7.8124 7.1084 2.5573 -10.3445 1.9640 3.6836 -5.1634 -1.3428 19.4196 14.8535 15.6096 -30.7686 20.7018 -17.4564 -13.6115 11.9483 -1.8671 -0.0000 0.0000 0.0000 -74.3176 9.6385 11.2585 139.0437 -48.6264 -100.8462 -0.0000 -0.0000 2.3109 24.3234 29.8821 12.6912 -7.1250 0.0000 -0.0000 -8.2293 62.0297 -3.4210 -0.0000 0.0000 0.0000 74.0491 -9.1410 10.1978 -131.8532 52.2202 -95.2983 0.0000 -0.0000 -12.2908 -19.8731 0.4083 -0.1476 7.1250 -0.0000 -0.0000 5.2482 -29.5265 1.9877
12.2056 16.4358 -3.3984 10.3367 28.7382 -4.1972 0.0000 0.0000 0.0000 -3.8482 -19.1025 -7.9617 2.4359 9.7204 28.0761 -0.6581 -14.7199 9.6622 0.4055 -4.0881 -11.3247 0.0000 0.0000 0.0000 8.3234 5.0139 -5.1086 -8.4327 -16.4285 54.1067 -4.0961 -5.3534 -40.3396 -0.0004 0.1240 -0.3406 -0.4166 -8.1184 7.3164 2.5963 -10.7434 1.9472 3.7572 -5.3607 -1.4498 19.5679 14.6999 15.4809 -30.4417 20.5579 -17.1202 -13.5003 11.8234 -1.8195 0.0000 -0.0000 0.0000 -73.8843 9.1818 12.0017 138.7947 -48.7680 -100.6591 -0.0000 -0.0000 2.6955 23.1218 29.3807 11.8315 -7.1250 0.0000 -0.0000 -9.3184 61.2158 -3.6983 0.0000 -0.0000 0.0000 74.2694 -9.0778 9.4606 -131.7465 52.2664 -95.2139 0.0000 -0.0000 -12.4123 -19.6136 0.8183 -0.2916 7.1250 -0.0000 -0.0000 5.4294 -29.0925 2.1131
12.2275 16.4172 -3.3964 9.9682 28.9402 -4.6105 0.0000 0.0000 0.0000 -3.6521 -19.2571 -7.7627 2.4810 9.8033 28.3421 -0.6896 -14.9117 9.2032 0.3954 -4.0377 -11.1826 0.0000 0.0000 0.0000 8.5483 4.5628 -4.8087 -8.4513 -16.4413 54.1723 -4.1608 -5.0398 -40.5105 -0.0000 0.0411 -0.1130 -0.7570 -8.3595 7.6012 2.6601 -11.0870 2.0519 4.0558 -5.5356 -1.3974 19.7311 14.5648 15.2343 -30.2470 20.4081 -16.8651 -13.4285 11.7031 -1.7539 -0.0000 0.0000 0.0000 -73.6943 8.5636 12.7541 138.5616 -48.8994 -100.4836 -0.0000 -0.0000 3.2210 22.3497 29.0796 11.3003 -7.1250 0.0000 -0.0000 -10.0165 60.7204 -3.8605 -0.0000 0.0000 0.0000 74.4137 -8.9283 8.7647 -131.8585 52.2179 -95.3025 0.0000 -0.0000 -12.3752 -19.6040 0.7767 -0.2766 7.1250 -0.0000 -0.0000 5.4390 -29.1363 2.1112
12.2476 16.4053 -3.3927 9.9881 29.0222 -4.5995 0.0000 0.0000 0.0000 -3.7597 -19.3545 -7.7979 2.5158 9.8666 28.5459 -0.7500 -15.3202 8.3483 0.5629 -4.8055 -13.3546 0.0000 0.0000 0.0000 8.3695 4.3873 -4.9116 -8.4848 -16.4645 54.2906 -4.1481 -4.9993 -40.4361 -0.0000 -0.0209 0.0573 -1.4681 -8.5313 7.6192 2.7024 -11.3736 2.0602 4.4843 -5.6867 -1.2315 19.9333 14.4105 15.0741 -30.1560 20.2650 -16.4958 -13.4001 11.5988 -1.6505 0.0000 -0.0000 0.0000 -73.7298 8.0646 13.6111 138.3354 -49.0258 -100.3130 -0.0000 -0.0000 3.6055 22.5118 29.0160 11.3668 -7.1250 0.0000 -0.0000 -9.7959 60.6960 -3.7688 0.0000 -0.0000 0.0000 74.4693 -8.8077 8.2992 -132.0035 52.1548 -95.4170 0.0000 -0.0000 -12.2707 -19.9925 0.4238 -0.1542 7.1250 -0.0000 -0.0000 5.1540 -29.5105 1.9537
12.2673 16.3869 -3.3911 10.1948 28.9921 -4.4049 0.0000 0.0000 0.0000 -4.0007 -19.5022 -7.8489 2.5444 9.9181 28.7121 -0.7714 -15.4411 7.7524 0.6117 -5.0056 -13.9247 0.0000 0.0000 0.0000 8.0039 4.4335 -5.1736 -8.5326 -16.4974 54.4593 -4.1612 -4.6823 -40.3710 -0.0035 -0.3834 1.0535 -2.2877 -8.7464 7.6231 2.7424 -11.7269 1.9389 4.9779 -5.8689 -1.1572 19.7206 14.3093 15.2728 -30.0189 20.1136 -16.4276 -13.3685 11.5316 -1.7498 -0.0000 0.0000 0.0000 -73.9870 7.9541 14.2379 138.1653 -49.1201 -100.1845 -0.0000 -0.0000 4.1124 22.5613 28.7202 11.2904 -7.1250 0.0000 -0.0000 -9.5684 60.4087 -3.6149 -0.0000 0.0000 0.0000 74.4511 -8.6688 8.1922 -132.0433 52.1374 -95.4485 0.0000 -0.0000 -12.0515 -20.2697 0.1948 -0.0719 7.1250 -0.0000 -0.0000 4.9485 -29.7544 1.8464
12.2875 16.3611 -3.3924 9.9520 28.8463 -4.5877 0.0000 0.0000 0.0000 -3.8037 -19.5863 -7.7319 2.5723 9.9682 28.8738 -0.7870 -15.5412 7.2943 0.6517 -5.1639 -14.3766 0.0000 0.0000 0.0000 8.1574 4.4995 -5.1999 -8.5863 -16.5340 54.6480 -4.1932 -4.6494 -40.5055 -0.0010 -0.2063 0.5667 -2.6773 -8.9968 7.8529 2.8423 -12.0925 1.8653 5.3445 -6.0519 -1.2203 19.3322 14.3530 15.5506 -29.7260 20.1073 -16.6227 -13.2660 11.5373 -1.9408 -0.0000 0.0000 0.0000 -74.3786 7.9557 14.4741 138.0402 -49.1891 -100.0899 -0.0000 -0.0000 4.5809 22.5268 28.5022 11.1953 -7.1250 0.0000 -0.0000 -9.4833 60.1795 -3.5306 -0.0000 0.0000 0.0000 74.4397 -8.4227 8.4271 -132.0685 52.1264 -95.4684 0.0000 -0.0000 -11.9951 -20.5702 -0.0182 0.0068 7.1250 -0.0000 -0.0000 4.7235 -29.9824 1.7362
12.3067 16.3473 -3.3973 9.2693 28.5913 -4.9063 0.0000 0.0000 0.0000 -3.0906 -19.4998 -7.8072 2.6069 10.0298 29.0733 -0.8256 -15.8676 6.8985 0.6378 -5.1097 -14.2216 0.0000 0.0000 0.0000 8.8111 4.6809 -5.2592 -8.6349 -16.5670 54.8188 -4.1927 -5.0019 -40.6418 -0.0021 0.2966 -0.8151 -2.6286 -9.1535 7.9902 3.0171 -12.2944 1.8529 5.5316 -6.1533 -1.2569 19.3113 14.3265 15.6613 -29.6508 20.0781 -16.6330 -13.2567 11.5219 -1.9831 -0.0000 0.0000 0.0000 -74.7573 7.7360 14.7951 137.8184 -49.3106 -99.9219 -0.0000 -0.0000 4.9156 22.4008 28.3897 11.0884 -7.1250 0.0000 -0.0000 -9.5610 60.0354 -3.5270 -0.0000 0.0000 0.0000 74.5530 -8.0930 8.5725 -132.0460 52.1362 -95.4506 0.0000 -0.0000 -12.1859 -20.8061 -0.0498 0.0189 7.1250 -0.0000 -0.0000 4.5394 -30.0174 1.6643
12.3265 16.3372 -3.4013 8.9031 28.3829 -4.9312 0.0000 0.0000 0.0000 -2.6648 -19.5594 -7.9540 2.6386 10.0856 29.2544 -0.8633 -16.1885 6.2621 0.6753 -5.2547 -14.6363 0.0000 0.0000 0.0000 9.1338 4.8870 -5.4003 -8.6780 -16.5960 54.9696 -4.2237 -4.9204 -40.7514 -0.0003 0.1129 -0.3101 -2.7620 -9.2471 7.9544 3.0878 -12.4298 1.8137 5.6745 -6.2235 -1.2189 19.4061 14.1954 15.7207 -29.7198 19.9132 -16.6299 -13.3253 11.4437 -2.0135 -0.0000 -0.0000 0.0000 -75.0914 7.6090 15.3007 137.7336 -49.3568 -99.8576 -0.0000 -0.0000 5.1776 22.3509 28.1823 10.9892 -7.1250 0.0000 -0.0000 -9.5014 59.8132 -3.4543 -0.0000 -0.0000 0.0000 74.8776 -7.8316 8.5766 -131.9716 52.1687 -95.3918 0.0000 -0.0000 -12.2660 -20.7230 0.4098 -0.1550 7.1250 -0.0000 -0.0000 4.5828 -29.5272 1.7340
12.3451 16.3200 -3.4002 8.7488 28.1704 -4.9486 0.0000 0.0000 0.0000 -2.5073 -19.6561 -7.8982 2.6612 10.1253 29.3833 -0.8832 -16.3738 5.6069 0.7798 -5.6377 -15.7369 0.0000 0.0000 0.0000 9.3003 5.1425 -5.3395 -8.7118 -16.6186 55.0880 -4.2584 -5.0236 -40.9499 -0.0000 -0.0290 0.0797 -3.0361 -9.2989 8.0420 3.0425 -12.5256 1.7168 5.8004 -6.2681 -1.3086 19.4918 14.0589 15.8264 -29.6241 19.7642 -16.5669 -13.3351 11.3597 -2.0557 0.0000 0.0000 0.0000 -75.4042 7.7336 15.8073 137.6428 -49.4061 -99.7886 -0.0000 -0.0000 5.4944 22.4903 27.8260 10.9380 -7.1250 0.0000 -0.0000 -9.1528 59.4844 -3.2542 0.0000 0.0000 0.0000 75.3248 -7.8254 8.7249 -131.9064 52.1971 -95.3404 0.0000 -0.0000 -12.1285 -20.9553 0.8194 -0.3138 7.1250 -0.0000 -0.0000 4.3832 -29.0903 1.7038
12.3628 16.3127 -3.3972 8.4441 27.9243 -5.2615 0.0000 0.0000 0.0000 -2.3121 -19.5977 -7.6109 2.6801 10.1582 29.4905 -0.8991 -16.5286 5.3020 0.8418 -5.8525 -16.3570 0.0000 0.0000 0.0000 9.7101 5.5129 -5.0493 -8.7277 -16.6293 55.1437 -4.2162 -5.7347 -41.0459 -0.0039 0.4021 -1.1049 -3.2287 -9.2951 8.3334 3.0200 -12.5425 1.7217 5.9312 -6.2733 -1.4242 19.6616 13.9107 15.6899 -29.4875 19.6224 -16.2521 -13.2917 11.2556 -1.9806 0.0000 -0.0000 0.0000 -75.7918 7.7825 16.3155 137.3763 -49.5498 -99.5860 -0.0000 -0.0000 5.9677 22.8420 27.3976 10.9697 -7.1250 0.0000 -0.0000 -8.5387 59.1300 -2.9614 0.0000 -0.0000 0.0000 75.7880 -7.7930 8.9793 -131.9424 52.1814 -95.3687 0.0000 -0.0000 -11.7716 -21.3167 0.5570 -0.2174 7.1250 -0.0000 -0.0000 4.1116 -29.3705 1.5702
12.3872 16.3113 -3.3954 8.1581 27.7708 -5.5393 0.0000 0.0000 0.0000 -2.1782 -19.6115 -7.3461 2.7001 10.1930 29.6040 -0.9108 -16.6525 4.9786 0.8838 -5.9929 -16.7637 0.0000 0.0000 0.0000 10.0254 5.7732 -4.8376 -8.7360 -16.6348 55.1726 -4.1924 -6.1360 -41.1055 -0.0079 0.5733 -1.5754 -3.3762 -9.3151 8.4869 2.9631 -12.5868 1.7957 5.9713 -6.2977 -1.4066 19.9186 13.7253 15.4327 -29.3561 19.4333 -15.9021 -13.2524 11.1175 -1.8765 0.0000 -0.0000 0.0000 -76.1852 7.8080 16.7606 137.2192 -49.6338 -99.4664 -0.0000 -0.0000 6.4172 23.1874 27.1450 11.0578 -7.1250 0.0000 -0.0000 -8.0291 58.9515 -2.7488 0.0000 -0.0000 0.0000 76.3561 -7.6935 9.2966 -132.1984 52.0694 -95.5708 0.0000 -0.0000 -11.7257 -21.3461 0.3855 -0.1506 7.1250 -0.0000 -0.0000 4.0956 -29.5543 1.5461
12.4162 16.2985 -3.3947 8.1757 27.6841 -5.4591 0.0000 0.0000 0.0000 -2.2872 -19.8345 -7.3011 2.7294 10.2436 29.7693 -0.9150 -16.7473 4.3109 0.9499 -6.2069 -17.3859 0.0000 0.0000 0.0000 9.8979 5.8648 -4.8834 -8.7556 -16.6479 55.2410 -4.2359 -6.0143 -41.2510 -0.0016 0.2576 -0.7077 -3.7053 -9.3623 8.3964 2.8404 -12.6826 1.7752 6.0042 -6.3487 -1.3244 20.0641 13.5330 15.3884 -29.2197 19.2059 -15.7888 -13.2451 10.9795 -1.8980 -0.0000 0.0000 0.0000 -76.6386 7.9833 17.0708 137.2395 -49.6230 -99.4819 -0.0000 -0.0000 6.7421 23.2188 27.3741 11.1583 -7.1250 0.0000 -0.0000 -8.1087 59.1939 -2.8234 -0.0000 0.0000 0.0000 76.9135 -7.6584 9.7720 -132.4663 51.9511 -95.7820 0.0000 -0.0000 -12.0745 -21.3659 0.7849 -0.3071 7.1250 -0.0000 -0.0000 4.0642 -29.1265 1.5757
12.4416 16.2863 -3.3965 8.2391 27.5837 -5.3800 0.0000 0.0000 0.0000 -2.4463 -20.1242 -7.2987 2.7789 10.3283 30.0465 -0.9173 -16.8581 3.5933 0.9837 -6.3131 -17.6957 0.0000 0.0000 0.0000 9.7667 5.9824 -4.9281 -8.7780 -16.6627 55.3192 -4.2377 -6.1291 -41.3075 -0.0000 0.0097 -0.0267 -4.0990 -9.3360 8.3713 2.7592 -12.6857 1.7884 6.1158 -6.3549 -1.2304 19.9428 13.3644 15.1354 -28.9970 18.9249 -15.6690 -13.1512 10.8090 -1.9364 0.0000 -0.0000 0.0000 -77.2235 8.0731 17.4082 137.2800 -49.6013 -99.5127 -0.0000 -0.0000 6.9042 22.9063 27.9024 11.1852 -7.1250 0.0000 -0.0000 -8.7303 59.6605 -3.1394 0.0000 -0.0000 0.0000 77.3833 -7.5196 10.2758 -132.5399 51.9183 -95.8400 0.0000 -0.0000 -12.2085 -21.5272 1.0934 -0.4313 7.1250 -0.0000 -0.0000 3.9273 -28.7953 1.5533
12.4669 16.2756 -3.4032 7.9596 27.4323 -5.5414 0.0000 0.0000 0.0000 -2.2707 -20.2398 -7.3437 2.8480 10.4448 30.4296 -0.9199 -16.9637 3.0879 1.0182 -6.4196 -18.0069 0.0000 0.0000 0.0000 10.0278 6.1753 -4.8494 -8.7923 -16.6722 55.3690 -4.2618 -6.0061 -41.3643 -0.0000 -0.0201 0.0551 -4.1429 -9.2634 8.5221 2.7571 -12.5972 1.7749 6.1630 -6.3068 -1.3293 19.7736 13.1853 14.8739 -28.6779 18.6449 -15.4078 -13.0050 10.6317 -1.9507 0.0000 -0.0000 0.0000 -77.8618 8.2201 17.7720 137.1333 -49.6795 -99.4010 -0.0000 -0.0000 7.0929 22.3626 27.7779 10.8538 -7.1250 0.0000 -0.0000 -9.2686 59.4055 -3.2784 0.0000 -0.0000 0.0000 77.8633 -7.4467 10.8181 -132.5268 51.9241 -95.8296 0.0000 -0.0000 -12.1776 -21.4426 1.0385 -0.4078 7.1250 -0.0000 -0.0000 3.9951 -28.8546 1.5746
12.4948 16.2611 -3.4117 7.4384 27.2775 -5.7609 0.0000 0.0000 0.0000 -1.8200 -20.1897 -7.4887 2.9166 10.5588 30.8059 -0.9280 -17.1109 2.7010 1.1083 -6.6886 -18.7962 0.0000 0.0000 0.0000 10.4924 6.3980 -4.8367 -8.7843 -16.6669 55.3413 -4.2265 -6.0513 -41.2241 -0.0022 0.3012 -0.8276 -3.8616 -9.2160 8.6904 2.7665 -12.5123 1.6744 6.0697 -6.2515 -1.5951 19.7867 12.9627 14.8107 -28.4486 18.3615 -15.2096 -12.9440 10.4633 -1.9848 0.0000 -0.0000 0.0000 -78.4966 8.6397 18.0055 136.9335 -49.7853 -99.2485 -0.0000 -0.0000 7.4254 21.9604 27.2470 10.4594 -7.1250 0.0000 -0.0000 -9.4321 58.7726 -3.1936 0.0000 -0.0000 0.0000 78.4184 -7.5189 11.4636 -132.5307 51.9224 -95.8327 0.0000 -0.0000 -12.2466 -21.0816 0.8897 -0.3430 7.1250 -0.0000 -0.0000 4.2820 -29.0150 1.6719
